<svg width="18" height="16" viewBox="0 0 18 16" fill="none" xmlns="http://www.w3.org/2000/svg">
<path d="M16.5 6.74996H15.6667V5.91663C15.6667 5.69561 15.5789 5.48365 15.4226 5.32737C15.2663 5.17109 15.0543 5.08329 14.8333 5.08329C14.6123 5.08329 14.4003 5.17109 14.2441 5.32737C14.0878 5.48365 14 5.69561 14 5.91663V6.74996H13.1667C12.9456 6.74996 12.7337 6.83776 12.5774 6.99404C12.4211 7.15032 12.3333 7.36228 12.3333 7.58329C12.3333 7.80431 12.4211 8.01627 12.5774 8.17255C12.7337 8.32883 12.9456 8.41663 13.1667 8.41663H14V9.24996C14 9.47097 14.0878 9.68294 14.2441 9.83922C14.4003 9.9955 14.6123 10.0833 14.8333 10.0833C15.0543 10.0833 15.2663 9.9955 15.4226 9.83922C15.5789 9.68294 15.6667 9.47097 15.6667 9.24996V8.41663H16.5C16.721 8.41663 16.933 8.32883 17.0892 8.17255C17.2455 8.01627 17.3333 7.80431 17.3333 7.58329C17.3333 7.36228 17.2455 7.15032 17.0892 6.99404C16.933 6.83776 16.721 6.74996 16.5 6.74996ZM10.0833 8.18329C10.528 7.7984 10.8846 7.32236 11.1291 6.78748C11.3735 6.25259 11.5 5.67138 11.5 5.08329C11.5 3.97822 11.061 2.91842 10.2796 2.13701C9.4982 1.35561 8.43839 0.916626 7.33332 0.916626C6.22825 0.916626 5.16845 1.35561 4.38705 2.13701C3.60564 2.91842 3.16666 3.97822 3.16666 5.08329C3.16665 5.67138 3.29316 6.25259 3.53759 6.78748C3.78203 7.32236 4.13868 7.7984 4.58332 8.18329C3.41677 8.71153 2.42704 9.56457 1.73247 10.6404C1.0379 11.7163 0.667883 12.9694 0.666656 14.25C0.666656 14.471 0.754454 14.6829 0.910734 14.8392C1.06701 14.9955 1.27898 15.0833 1.49999 15.0833C1.721 15.0833 1.93297 14.9955 2.08925 14.8392C2.24553 14.6829 2.33332 14.471 2.33332 14.25C2.33332 12.9239 2.86011 11.6521 3.79779 10.7144C4.73547 9.77674 6.00724 9.24996 7.33332 9.24996C8.65941 9.24996 9.93118 9.77674 10.8689 10.7144C11.8065 11.6521 12.3333 12.9239 12.3333 14.25C12.3333 14.471 12.4211 14.6829 12.5774 14.8392C12.7337 14.9955 12.9456 15.0833 13.1667 15.0833C13.3877 15.0833 13.5996 14.9955 13.7559 14.8392C13.9122 14.6829 14 14.471 14 14.25C13.9988 12.9694 13.6287 11.7163 12.9342 10.6404C12.2396 9.56457 11.2499 8.71153 10.0833 8.18329ZM7.33332 7.58329C6.83887 7.58329 6.35552 7.43667 5.9444 7.16197C5.53327 6.88726 5.21284 6.49682 5.02362 6.04C4.83441 5.58319 4.7849 5.08052 4.88136 4.59557C4.97782 4.11061 5.21593 3.66516 5.56556 3.31553C5.91519 2.96589 6.36065 2.72779 6.8456 2.63133C7.33055 2.53487 7.83322 2.58438 8.29003 2.77359C8.74685 2.96281 9.13729 3.28324 9.412 3.69437C9.6867 4.10549 9.83332 4.58884 9.83332 5.08329C9.83332 5.74633 9.56993 6.38222 9.10109 6.85106C8.63225 7.3199 7.99636 7.58329 7.33332 7.58329Z" fill="white" fill-opacity="0.5"/>
</svg>
