<svg width="18" height="11" viewBox="0 0 18 11" fill="none" xmlns="http://www.w3.org/2000/svg">
<path d="M9.83332 8.83333H1.49999C1.27898 8.83333 1.06701 8.92113 0.910734 9.07741C0.754454 9.23369 0.666656 9.44565 0.666656 9.66667C0.666656 9.88768 0.754454 10.0996 0.910734 10.2559C1.06701 10.4122 1.27898 10.5 1.49999 10.5H9.83332C10.0543 10.5 10.2663 10.4122 10.4226 10.2559C10.5789 10.0996 10.6667 9.88768 10.6667 9.66667C10.6667 9.44565 10.5789 9.23369 10.4226 9.07741C10.2663 8.92113 10.0543 8.83333 9.83332 8.83333ZM1.49999 2.16667H16.5C16.721 2.16667 16.933 2.07887 17.0892 1.92259C17.2455 1.76631 17.3333 1.55435 17.3333 1.33333C17.3333 1.11232 17.2455 0.900358 17.0892 0.744078C16.933 0.587798 16.721 0.5 16.5 0.5H1.49999C1.27898 0.5 1.06701 0.587798 0.910734 0.744078C0.754454 0.900358 0.666656 1.11232 0.666656 1.33333C0.666656 1.55435 0.754454 1.76631 0.910734 1.92259C1.06701 2.07887 1.27898 2.16667 1.49999 2.16667ZM16.5 4.66667H1.49999C1.27898 4.66667 1.06701 4.75446 0.910734 4.91074C0.754454 5.06702 0.666656 5.27899 0.666656 5.5C0.666656 5.72101 0.754454 5.93297 0.910734 6.08926C1.06701 6.24554 1.27898 6.33333 1.49999 6.33333H16.5C16.721 6.33333 16.933 6.24554 17.0892 6.08926C17.2455 5.93297 17.3333 5.72101 17.3333 5.5C17.3333 5.27899 17.2455 5.06702 17.0892 4.91074C16.933 4.75446 16.721 4.66667 16.5 4.66667Z" fill="white" fill-opacity="0.5"/>
</svg>
