<svg width="14" height="14" viewBox="0 0 14 14" fill="none" xmlns="http://www.w3.org/2000/svg">
<path d="M13.6667 3.8266C13.6672 3.73886 13.6504 3.65188 13.6172 3.57066C13.584 3.48943 13.5351 3.41556 13.4733 3.35326L10.6467 0.526596C10.5844 0.464809 10.5105 0.415925 10.4293 0.382749C10.348 0.349573 10.2611 0.332756 10.1733 0.333263C10.0856 0.332756 9.99862 0.349573 9.91739 0.382749C9.83617 0.415925 9.76229 0.464809 9.7 0.526596L7.81333 2.41326L0.526665 9.69993C0.464877 9.76222 0.415994 9.8361 0.382818 9.91733C0.349641 9.99855 0.332824 10.0855 0.333332 10.1733V12.9999C0.333332 13.1767 0.40357 13.3463 0.528594 13.4713C0.653618 13.5964 0.823187 13.6666 0.999998 13.6666H3.82666C3.91995 13.6717 4.01326 13.6571 4.10054 13.6238C4.18783 13.5905 4.26714 13.5392 4.33333 13.4733L11.58 6.1866L13.4733 4.33326C13.5342 4.26865 13.5838 4.19428 13.62 4.11326C13.6264 4.06012 13.6264 4.0064 13.62 3.95326C13.6231 3.92223 13.6231 3.89096 13.62 3.85993L13.6667 3.8266ZM3.55333 12.3333H1.66667V10.4466L8.28667 3.8266L10.1733 5.71326L3.55333 12.3333ZM11.1133 4.77326L9.22667 2.8866L10.1733 1.9466L12.0533 3.8266L11.1133 4.77326Z" fill="white" fill-opacity="0.5"/>
</svg>
