<svg width="18" height="18" viewBox="0 0 18 18" fill="none" xmlns="http://www.w3.org/2000/svg">
<path d="M14.8333 2.33329H13.1667V1.49996C13.1667 1.27895 13.0789 1.06698 12.9226 0.910704C12.7663 0.754423 12.5543 0.666626 12.3333 0.666626C12.1123 0.666626 11.9003 0.754423 11.7441 0.910704C11.5878 1.06698 11.5 1.27895 11.5 1.49996V2.33329H6.49999V1.49996C6.49999 1.27895 6.41219 1.06698 6.25591 0.910704C6.09963 0.754423 5.88767 0.666626 5.66666 0.666626C5.44564 0.666626 5.23368 0.754423 5.0774 0.910704C4.92112 1.06698 4.83332 1.27895 4.83332 1.49996V2.33329H3.16666C2.50362 2.33329 1.86773 2.59668 1.39889 3.06553C0.930049 3.53437 0.666656 4.17025 0.666656 4.83329V14.8333C0.666656 15.4963 0.930049 16.1322 1.39889 16.6011C1.86773 17.0699 2.50362 17.3333 3.16666 17.3333H14.8333C15.4964 17.3333 16.1322 17.0699 16.6011 16.6011C17.0699 16.1322 17.3333 15.4963 17.3333 14.8333V4.83329C17.3333 4.17025 17.0699 3.53437 16.6011 3.06553C16.1322 2.59668 15.4964 2.33329 14.8333 2.33329ZM15.6667 14.8333C15.6667 15.0543 15.5789 15.2663 15.4226 15.4225C15.2663 15.5788 15.0543 15.6666 14.8333 15.6666H3.16666C2.94564 15.6666 2.73368 15.5788 2.5774 15.4225C2.42112 15.2663 2.33332 15.0543 2.33332 14.8333V8.99996H15.6667V14.8333ZM15.6667 7.33329H2.33332V4.83329C2.33332 4.61228 2.42112 4.40032 2.5774 4.24404C2.73368 4.08776 2.94564 3.99996 3.16666 3.99996H4.83332V4.83329C4.83332 5.05431 4.92112 5.26627 5.0774 5.42255C5.23368 5.57883 5.44564 5.66663 5.66666 5.66663C5.88767 5.66663 6.09963 5.57883 6.25591 5.42255C6.41219 5.26627 6.49999 5.05431 6.49999 4.83329V3.99996H11.5V4.83329C11.5 5.05431 11.5878 5.26627 11.7441 5.42255C11.9003 5.57883 12.1123 5.66663 12.3333 5.66663C12.5543 5.66663 12.7663 5.57883 12.9226 5.42255C13.0789 5.26627 13.1667 5.05431 13.1667 4.83329V3.99996H14.8333C15.0543 3.99996 15.2663 4.08776 15.4226 4.24404C15.5789 4.40032 15.6667 4.61228 15.6667 4.83329V7.33329Z" fill="white" fill-opacity="0.5"/>
</svg>
